<?xml version="1.0" encoding="UTF-8"?>
<svg version="1.1" xmlns="http://www.w3.org/2000/svg" width="48" height="48">
<path d="M0 0 C2.35546875 0.23046875 2.35546875 0.23046875 5 1 C6.30078125 2.92578125 6.30078125 2.92578125 7.3125 5.3125 C9.55336821 9.83003303 11.65410681 11.4088593 16.328125 13.1484375 C18 14 18 14 19 17 C17.1210827 19.19207019 15.6518407 20.16682633 13 21.4375 C8.98427448 23.52902371 7.53980378 25.4525625 6.0625 29.6875 C5 32 5 32 2.875 32.8125 C2.25625 32.874375 1.6375 32.93625 1 33 C-2 28 -2 28 -3.125 25.5 C-5.95327037 21.72897284 -9.82893806 20.05492569 -14 18 C-14 16.68 -14 15.36 -14 14 C-12.71086513 13.32845067 -11.41859796 12.66291141 -10.125 12 C-9.40570312 11.62875 -8.68640625 11.2575 -7.9453125 10.875 C-6 10 -6 10 -4 10 C-3.71125 9.0925 -3.4225 8.185 -3.125 7.25 C-2.23468224 4.67797092 -1.28505587 2.38653234 0 0 Z " fill="#000000" transform="translate(29,15)"/>
<path d="M0 0 C1.8125 0.125 1.8125 0.125 4 1 C4.45375 1.94875 4.9075 2.8975 5.375 3.875 C7.34552063 7.66446276 9.11101614 8.44440646 13 10 C13 11.65 13 13.3 13 15 C12.071875 15.37125 11.14375 15.7425 10.1875 16.125 C6.4739697 18.30942959 5.57312496 20.06718759 4 24 C2.35 24 0.7 24 -1 24 C-1.556875 22.88625 -2.11375 21.7725 -2.6875 20.625 C-4.64450784 17.13733245 -6.21673306 16.32925595 -10 15 C-10.8125 12.875 -10.8125 12.875 -11 11 C-9.9275 10.484375 -8.855 9.96875 -7.75 9.4375 C-3.53003795 7.06644627 -2.06854018 4.30256358 0 0 Z " fill="#000000" transform="translate(11,0)"/>
</svg>
