<?xml version="1.0" encoding="UTF-8"?>
<svg version="1.1" xmlns="http://www.w3.org/2000/svg" width="360" height="360">
<path d="M0 0 C22.03703154 17.37829886 34.72690375 42.67153094 38.15454102 70.32397461 C40.35448376 90.65082967 38.89698135 112.94439145 25.98046875 129.75 C17.27064833 139.80776882 8.66986184 145.07729223 -4.7109375 146.203125 C-39.73359205 147.07524877 -70.33696852 122.39434493 -96.07910156 101.41748047 C-98.4269702 99.52249696 -100.80832642 97.67272898 -103.19189453 95.82299805 C-108.48548502 91.71355849 -113.6380848 87.49147139 -118.69140625 83.08984375 C-126.46835133 76.33655707 -134.61767151 70.11094985 -142.87890625 63.96484375 C-143.5032959 63.49771973 -144.12768555 63.0305957 -144.77099609 62.54931641 C-164.59745412 47.14229867 -164.59745412 47.14229867 -188.35546875 43.2578125 C-194.17560076 44.8885306 -198.92888266 48.20982252 -203.37890625 52.21484375 C-206.23111786 57.44389837 -207.56206666 62.61647984 -205.87890625 68.40234375 C-202.84451844 72.29015313 -199.48591148 73.71447699 -194.64453125 74.46875 C-181.14181506 74.69379527 -168.44931687 70.70739014 -156.921875 63.65234375 C-154.87890625 62.96484375 -154.87890625 62.96484375 -152.2421875 63.65234375 C-149.87890625 64.96484375 -149.87890625 64.96484375 -147.87890625 67.96484375 C-162.98820523 81.01216781 -182.809071 93.68726445 -203.44140625 92.96484375 C-211.22385583 91.99759645 -217.43644171 88.18378961 -222.31640625 82.08984375 C-228.73843224 72.51122872 -229.89464723 62.21315364 -227.73046875 50.98828125 C-225.03619011 41.42235617 -219.53638803 33.24335816 -210.90625 28.2421875 C-198.36339381 21.79549471 -184.78940292 20.68377549 -171.19140625 24.90234375 C-150.18250722 32.98268953 -132.21133265 47.54402674 -114.5378418 61.12963867 C-107.1058525 66.83177437 -99.54320109 72.30899296 -91.82714844 77.61962891 C-89.95269485 78.91389448 -88.09133044 80.22536475 -86.23046875 81.5390625 C-67.83440017 94.35542281 -45.39853164 108.07560754 -22.0703125 104.5390625 C-14.43609728 102.81315809 -8.86842595 99.54471841 -4.53515625 92.90625 C1.76688957 80.99988487 0.32281059 65.21555437 -3.48828125 52.6953125 C-9.65397472 36.15532018 -18.71946492 20.64456912 -35.2890625 12.9453125 C-48.37705981 7.99042966 -62.62096054 13.50952458 -74.74316406 18.97363281 C-88.68291582 25.44315638 -101.50882141 33.04152071 -114.06030273 41.92138672 C-115.02266846 42.59057129 -115.98503418 43.25975586 -116.9765625 43.94921875 C-118.25285522 44.85752441 -118.25285522 44.85752441 -119.55493164 45.78417969 C-121.87890625 46.96484375 -121.87890625 46.96484375 -124.04467773 46.73925781 C-126.35018369 45.7658697 -128.04322176 44.66940792 -129.87890625 42.96484375 C-129.87890625 39.96484375 -129.87890625 39.96484375 -128.62109375 38.5625 C-128.00492187 38.05589844 -127.38875 37.54929688 -126.75390625 37.02734375 C-126.0165625 36.41246094 -125.27921875 35.79757813 -124.51953125 35.1640625 C-123.648125 34.43832031 -122.77671875 33.71257812 -121.87890625 32.96484375 C-120.87109695 32.07846942 -119.86604355 31.18895505 -118.86328125 30.296875 C-105.0386401 18.06960156 -90.29619695 7.42870182 -73.87890625 -1.03515625 C-73.25951172 -1.36241699 -72.64011719 -1.68967773 -72.00195312 -2.02685547 C-48.12777716 -14.53506596 -22.91237565 -16.19721535 0 0 Z " fill="#6C4E9B" transform="translate(274.87890625,113.03515625)"/>
<path d="M0 0 C14.90660924 11.75528156 28.8049744 28.52505549 31.12109375 47.96484375 C31.91449681 62.26229065 31.7558485 76.9629478 23.12109375 88.96484375 C21.79765488 90.30799866 20.46542308 91.64259786 19.12109375 92.96484375 C18.34765625 94.32609375 18.34765625 94.32609375 17.55859375 95.71484375 C17.08421875 96.45734375 16.60984375 97.19984375 16.12109375 97.96484375 C15.13109375 97.96484375 14.14109375 97.96484375 13.12109375 97.96484375 C12.89421875 98.56296875 12.66734375 99.16109375 12.43359375 99.77734375 C10.76500333 102.55832778 8.99271055 103.52903535 6.12109375 104.96484375 C5.46109375 104.96484375 4.80109375 104.96484375 4.12109375 104.96484375 C4.12109375 105.62484375 4.12109375 106.28484375 4.12109375 106.96484375 C0.65609375 107.45984375 0.65609375 107.45984375 -2.87890625 107.96484375 C-2.87890625 108.62484375 -2.87890625 109.28484375 -2.87890625 109.96484375 C-20.35262317 114.20402951 -38.0231473 109.29212629 -53.87890625 101.96484375 C-49.92755521 100.64772674 -47.17500291 101.80592406 -43.31640625 102.90234375 C-33.03704679 105.61736419 -23.93286905 106.20283704 -13.87890625 101.96484375 C-7.29804516 97.79806738 -3.25886664 92.26090796 -1.30078125 84.74609375 C1.69831108 64.97429985 -3.80682034 46.32241024 -14.9296875 29.9453125 C-22.005646 20.78091577 -30.76110398 12.77716823 -42.62890625 10.96484375 C-67.63110298 9.67767918 -94.67510393 28.20683276 -114.06030273 41.92138672 C-115.02266846 42.59057129 -115.98503418 43.25975586 -116.9765625 43.94921875 C-117.82742432 44.55475586 -118.67828613 45.16029297 -119.55493164 45.78417969 C-121.87890625 46.96484375 -121.87890625 46.96484375 -124.04467773 46.73925781 C-126.35018369 45.7658697 -128.04322176 44.66940792 -129.87890625 42.96484375 C-129.87890625 39.96484375 -129.87890625 39.96484375 -128.62109375 38.5625 C-128.00492188 38.05589844 -127.38875 37.54929688 -126.75390625 37.02734375 C-126.0165625 36.41246094 -125.27921875 35.79757813 -124.51953125 35.1640625 C-123.648125 34.43832031 -122.77671875 33.71257812 -121.87890625 32.96484375 C-120.87109695 32.07846942 -119.86604355 31.18895505 -118.86328125 30.296875 C-105.0386401 18.06960156 -90.29619695 7.42870182 -73.87890625 -1.03515625 C-73.25951172 -1.36241699 -72.64011719 -1.68967773 -72.00195312 -2.02685547 C-48.12777716 -14.53506596 -22.91237565 -16.19721535 0 0 Z " fill="#7D3A78" transform="translate(274.87890625,113.03515625)"/>
<path d="M0 0 C2.71940705 2.71940705 3.4094778 5.84436916 4.5 9.4375 C4.83209473 10.52828857 4.83209473 10.52828857 5.17089844 11.64111328 C9.64312307 26.65595958 13.08049117 46.7585265 8 62 C7.34 62 6.68 62 6 62 C5.731875 63.27875 5.46375 64.5575 5.1875 65.875 C2.18999643 74.76946152 -6.17881965 80.32288373 -14.1875 84.5 C-21.66887228 88.09942946 -28.73367368 89.37200509 -36.9375 89.3125 C-38.11783813 89.30621582 -38.11783813 89.30621582 -39.32202148 89.29980469 C-45.07385528 89.18782946 -49.80006824 88.64723798 -55 86 C-55.92578125 84.11328125 -55.92578125 84.11328125 -56 82 C-54.6015625 80.18359375 -54.6015625 80.18359375 -52.625 78.4375 C-49.59441442 75.73624591 -49.59441442 75.73624591 -48 72 C-48.66 72 -49.32 72 -50 72 C-50.66 73.32 -51.32 74.64 -52 76 C-53 72.125 -53 72.125 -53 71 C-42.605 70.505 -42.605 70.505 -32 70 C-32 69.34 -32 68.68 -32 68 C-28.535 67.505 -28.535 67.505 -25 67 C-25 66.34 -25 65.68 -25 65 C-23.28515625 63.78125 -23.28515625 63.78125 -21.0625 62.5 C-17.94567974 60.81545121 -17.94567974 60.81545121 -16 58 C-15.38125 57.731875 -14.7625 57.46375 -14.125 57.1875 C-11.31886597 55.61936628 -10.55567092 53.78724373 -9 51 C-8.360625 50.236875 -7.72125 49.47375 -7.0625 48.6875 C2.49970675 36.22765484 2.32938341 18.12177212 0.5 3.0625 C0.2525 1.5465625 0.2525 1.5465625 0 0 Z " fill="#3CC2F1" transform="translate(304,153)"/>
<path d="M0 0 C-2.9341315 0.8373663 -5.58412436 1.08349611 -8.625 1.1875 C-15.8356979 1.85950291 -21.21037357 5.48933621 -26.5 10.25 C-29.35221161 15.47905462 -30.68316041 20.65163609 -29 26.4375 C-25.96561219 30.32530938 -22.60700523 31.74963324 -17.765625 32.50390625 C-4.26290881 32.72895152 8.42958938 28.74254639 19.95703125 21.6875 C22 21 22 21 24.63671875 21.6875 C27 23 27 23 29 26 C13.89070102 39.04732406 -5.93016475 51.7224207 -26.5625 51 C-33.18727177 50.21111039 -39.34295202 47.15253478 -43.67578125 42.01171875 C-48.57830313 34.56393478 -49.0280628 26.70359966 -48 18 C-45.44730434 9.61433308 -39.03332386 5.01108578 -31.79296875 0.6796875 C-22.18029104 -4.00383179 -9.95395305 -3.26145251 0 0 Z " fill="#1987C7" transform="translate(98,155)"/>
<path d="M0 0 C12.56671147 8.24889113 24.52848499 17.32765747 36.42578125 26.50390625 C40.22374629 29.42754233 44.0793506 32.24337607 48 35 C47.43454163 38.95820859 46.19097652 41.6659053 44 45 C41.0280615 43.87548273 38.66559313 42.77706209 36 41 C36 40.34 36 39.68 36 39 C35.28070313 38.75378906 34.56140625 38.50757813 33.8203125 38.25390625 C30.68755766 36.86108866 28.49234878 35.14263636 25.875 32.9375 C22.26943048 29.88863502 22.26943048 29.88863502 18 28 C18 27.34 18 26.68 18 26 C16.93265625 25.62488281 16.93265625 25.62488281 15.84375 25.2421875 C12.69704532 23.8676654 10.26841234 22.15665744 7.5 20.125 C1.62941844 15.93560317 -4.49172325 12.26696124 -10.75 8.6875 C-11.62462891 8.18428223 -12.49925781 7.68106445 -13.40039062 7.16259766 C-21.06969595 2.81926658 -28.89526122 -0.71728566 -37.1875 -3.6875 C-38.33605469 -4.10386719 -39.48460937 -4.52023438 -40.66796875 -4.94921875 C-47.13985012 -6.99017548 -53.80509563 -7.94385348 -60.5 -6.4375 C-67.16778666 -2.60352267 -72.92666863 2.85775105 -76 10 C-76.42248477 13.33711408 -76.42248477 13.33711408 -76 16 C-75.34 16.33 -74.68 16.66 -74 17 C-74.32484375 17.84691406 -74.6496875 18.69382813 -74.984375 19.56640625 C-77.29336568 27.37257089 -76.89973804 36.38818764 -74 44 C-79.1891788 39.2601635 -80.51470021 32.47746222 -80.9921875 25.69921875 C-81.02493029 14.38658494 -77.46103464 4.64527945 -69.875 -3.8125 C-49.11169964 -23.0893896 -20.75563541 -13.2646704 0 0 Z " fill="#E51388" transform="translate(127,150)"/>
<path d="M0 0 C1.73540039 0.12568359 1.73540039 0.12568359 3.50585938 0.25390625 C12.77391298 1.03924335 12.77391298 1.03924335 16.5625 4.375 C14.47645894 8.29800259 12.29877284 10.93205237 8.5625 13.375 C3.66703657 14.26279023 -1.33813242 13.73623862 -6.28125 13.5234375 C-34.94353086 12.33093465 -70.53758342 32.72899599 -91.4375 51.375 C-91.4375 52.035 -91.4375 52.695 -91.4375 53.375 C-90.4475 53.705 -89.4575 54.035 -88.4375 54.375 C-85.67510649 52.96011552 -83.63386905 51.57136905 -81.4375 49.375 C-79.06759619 47.8976011 -76.65385368 46.50672616 -74.23828125 45.10546875 C-72.0907283 43.77859852 -70.10982098 42.41756519 -68.0859375 40.921875 C-64.49163785 38.32385061 -60.73974175 36.35509958 -56.75 34.4375 C-55.34228761 33.75032829 -53.93473704 33.06282501 -52.52734375 32.375 C-51.83753418 32.03984375 -51.14772461 31.7046875 -50.43701172 31.359375 C-46.61745035 29.47897556 -42.85402408 27.48512083 -39.0859375 25.50390625 C-36.4375 24.375 -36.4375 24.375 -33.1640625 23.83984375 C-32.26429688 23.68644531 -31.36453125 23.53304687 -30.4375 23.375 C-30.1075 22.715 -29.7775 22.055 -29.4375 21.375 C-21.5247429 18.52640744 -12.69821188 19.17674291 -4.4375 19.375 C-4.4375 19.705 -4.4375 20.035 -4.4375 20.375 C-6.3246875 20.59542969 -6.3246875 20.59542969 -8.25 20.8203125 C-35.1529688 24.2238435 -57.79081224 36.83423912 -79.72070312 52.38232422 C-80.67267578 53.04635254 -81.62464844 53.71038086 -82.60546875 54.39453125 C-83.44360107 54.99370361 -84.2817334 55.59287598 -85.14526367 56.21020508 C-87.4375 57.375 -87.4375 57.375 -89.59887695 57.1472168 C-91.90857313 56.17715054 -93.60001287 55.08123805 -95.4375 53.375 C-95.4375 50.375 -95.4375 50.375 -94.1796875 48.97265625 C-93.56351563 48.46605469 -92.94734375 47.95945313 -92.3125 47.4375 C-91.57515625 46.82261719 -90.8378125 46.20773438 -90.078125 45.57421875 C-89.20671875 44.84847656 -88.3353125 44.12273437 -87.4375 43.375 C-86.4296907 42.48862567 -85.4246373 41.5991113 -84.421875 40.70703125 C-61.99400882 20.87059213 -31.46898075 -2.97994912 0 0 Z " fill="#F17155" transform="translate(240.4375,102.625)"/>
<path d="M0 0 C2.75236947 1.3156387 5.25465557 2.7738496 7.765625 4.50390625 C8.48314941 4.99310547 9.20067383 5.48230469 9.93994141 5.98632812 C10.70226074 6.50646484 11.46458008 7.02660156 12.25 7.5625 C23.08555781 14.87291907 34.2898657 21.20955832 46 27 C46 27.66 46 28.32 46 29 C53.59066442 31.61747049 61.272099 33.82597774 69 36 C71.33392285 36.66462324 73.66699592 37.33215532 76 38 C76.495 39.98 76.495 39.98 77 42 C77.66 41.01 78.32 40.02 79 39 C79.66 39 80.32 39 81 39 C80.26474664 43.23468709 78.15539387 45.27583095 75.27734375 48.31640625 C73.69778653 50.04611133 73.69778653 50.04611133 74 53 C76.31 53.33 78.62 53.66 81 54 C71.56335597 57.11668977 58.42231386 49.22016154 50 45 C41.97043862 40.70257093 34.43895776 35.7561576 27.1484375 30.3046875 C22.95384174 27.23420177 18.66832905 24.30520951 14.375 21.375 C13.58706055 20.83649414 12.79912109 20.29798828 11.98730469 19.74316406 C6.68215134 16.12591337 1.34917911 12.55177844 -4 9 C-2.78534783 5.92254092 -1.52352768 2.93823196 0 0 Z M72 50 C73 52 73 52 73 52 Z " fill="#657BBF" transform="translate(175,186)"/>
<path d="M0 0 C18.26701126 0.29854155 33.57959655 9.50527984 46.33984375 21.96484375 C50.5805099 26.41988797 53.08660027 29.08376193 53.6875 35.375 C52.28296357 36.26934157 50.86328131 37.13993192 49.4375 38 C48.64859375 38.48726562 47.8596875 38.97453125 47.046875 39.4765625 C44.6875 40.375 44.6875 40.375 42.515625 39.7109375 C40.6875 38.375 40.6875 38.375 38.6875 35.375 C37.6975 34.715 36.7075 34.055 35.6875 33.375 C34 31.875 34 31.875 32.6875 30.375 C32.6875 29.715 32.6875 29.055 32.6875 28.375 C31.93919922 28.00375 31.93919922 28.00375 31.17578125 27.625 C29.12511909 26.59484005 27.08327582 25.55039371 25.04296875 24.5 C23.65373006 23.79150149 22.26440465 23.08317301 20.875 22.375 C20.18857422 22.01921875 19.50214844 21.6634375 18.79492188 21.296875 C14.48490516 19.11128469 10.37683231 17.55193046 5.6875 16.375 C6.56148437 16.00761719 6.56148437 16.00761719 7.453125 15.6328125 C10.05052236 14.17064126 11.52725831 12.52759586 13.4375 10.25 C14.05109375 9.52554688 14.6646875 8.80109375 15.296875 8.0546875 C15.75578125 7.50039062 16.2146875 6.94609375 16.6875 6.375 C13.52059787 4.26373191 12.26422971 4.04016888 8.58203125 3.7421875 C7.59912109 3.65839844 6.61621094 3.57460937 5.60351562 3.48828125 C4.57935547 3.40964844 3.55519531 3.33101563 2.5 3.25 C1.46423828 3.16363281 0.42847656 3.07726562 -0.63867188 2.98828125 C-3.19608608 2.77614551 -5.75388541 2.57203581 -8.3125 2.375 C-5.54953927 -0.38796073 -3.8647191 0.04298909 0 0 Z " fill="#EA048A" transform="translate(239.3125,100.625)"/>
<path d="M0 0 C-3.22814488 2.65337762 -6.55820809 4.26042477 -10.375 5.9375 C-14.93090269 7.99631956 -18.96406922 10.07395018 -23 13 C-23.825 13.45375 -24.65 13.9075 -25.5 14.375 C-28.82020165 16.53313107 -31.26523374 19.13803531 -34 22 C-33.505 23.485 -33.505 23.485 -33 25 C-33.81339844 25.43828125 -34.62679687 25.8765625 -35.46484375 26.328125 C-42.66954604 30.31542931 -49.56018145 34.5951366 -56.3125 39.3125 C-57.43289673 40.0854541 -57.43289673 40.0854541 -58.57592773 40.87402344 C-59.61535522 41.61120605 -59.61535522 41.61120605 -60.67578125 42.36328125 C-61.29364502 42.79938721 -61.91150879 43.23549316 -62.5480957 43.68481445 C-64.28736594 45.04408533 -64.28736594 45.04408533 -65 48 C-64.01 48.33 -63.02 48.66 -62 49 C-59.23760649 47.58511552 -57.19636905 46.19636905 -55 44 C-52.63009619 42.5226011 -50.21635368 41.13172616 -47.80078125 39.73046875 C-45.6532283 38.40359852 -43.67232098 37.04256519 -41.6484375 35.546875 C-38.05413785 32.94885061 -34.30224175 30.98009958 -30.3125 29.0625 C-28.90478761 28.37532829 -27.49723704 27.68782501 -26.08984375 27 C-25.40003418 26.66484375 -24.71022461 26.3296875 -23.99951172 25.984375 C-20.17995035 24.10397556 -16.41652408 22.11012083 -12.6484375 20.12890625 C-10 19 -10 19 -6.7265625 18.46484375 C-5.82679688 18.31144531 -4.92703125 18.15804687 -4 18 C-3.67 17.34 -3.34 16.68 -3 16 C4.9127571 13.15140744 13.73928812 13.80174291 22 14 C22 14.33 22 14.66 22 15 C20.1128125 15.22042969 20.1128125 15.22042969 18.1875 15.4453125 C-8.7154688 18.8488435 -31.35331224 31.45923912 -53.28320312 47.00732422 C-54.23517578 47.67135254 -55.18714844 48.33538086 -56.16796875 49.01953125 C-57.00610107 49.61870361 -57.8442334 50.21787598 -58.70776367 50.83520508 C-61 52 -61 52 -63.16137695 51.7722168 C-65.47107313 50.80215054 -67.16251287 49.70623805 -69 48 C-69 45 -69 45 -67.7421875 43.59765625 C-67.12601563 43.09105469 -66.50984375 42.58445313 -65.875 42.0625 C-65.13765625 41.44761719 -64.4003125 40.83273438 -63.640625 40.19921875 C-62.76921875 39.47347656 -61.8978125 38.74773437 -61 38 C-59.9921907 37.11362567 -58.9871373 36.2241113 -57.984375 35.33203125 C-44.15405355 23.09973384 -29.40442617 12.5039235 -13 4 C-12.29649414 3.6292334 -11.59298828 3.2584668 -10.86816406 2.87646484 C-10.16143555 2.51117676 -9.45470703 2.14588867 -8.7265625 1.76953125 C-8.08541504 1.43671143 -7.44426758 1.1038916 -6.78369141 0.76098633 C-4.45631156 -0.23195686 -2.49522965 -0.31190371 0 0 Z " fill="#EFC257" transform="translate(214,108)"/>
<path d="M0 0 C8.1220873 7.19384875 10.58095523 15.1617992 12.2265625 25.64453125 C12 29 12 29 9.6484375 31.32421875 C8.33746094 32.15373047 8.33746094 32.15373047 7 33 C6.34 33.66 5.68 34.32 5 35 C4.67 33.35 4.34 31.7 4 30 C3.34 30 2.68 30 2 30 C1.18595703 28.35451172 1.18595703 28.35451172 0.35546875 26.67578125 C-0.3670797 25.22130061 -1.08974196 23.7668765 -1.8125 22.3125 C-2.16892578 21.59126953 -2.52535156 20.87003906 -2.89257812 20.12695312 C-4.78806219 16.31859523 -6.74207126 12.61126143 -9 9 C-7.90241493 8.15801693 -6.79664683 7.32669329 -5.6875 6.5 C-5.07261719 6.0359375 -4.45773437 5.571875 -3.82421875 5.09375 C-2 4 -2 4 1 4 C0.67 2.68 0.34 1.36 0 0 Z " fill="#952E8F" transform="translate(292,132)"/>
<path d="M0 0 C2 1 2 1 2.81640625 3.22265625 C6.47458659 17.14672486 8.64611419 32.83036238 1.37890625 46.05078125 C-3.39118041 52.79376495 -9.03180553 56.66327567 -17.03125 58.52734375 C-18.99057743 58.81641141 -18.99057743 58.81641141 -20 60 C-17.58325776 60.02705308 -15.1668206 60.04686438 -12.75 60.0625 C-11.72712891 60.07506836 -11.72712891 60.07506836 -10.68359375 60.08789062 C-7.89049184 60.10144937 -5.35075968 60.0934972 -2.640625 59.37109375 C-2.09921875 59.24863281 -1.5578125 59.12617188 -1 59 C-0.34 59.66 0.32 60.32 1 61 C-16.47371692 65.23918576 -34.14424105 60.32728254 -50 53 C-46.04864896 51.68288299 -43.29609666 52.84108031 -39.4375 53.9375 C-29.15814054 56.65252044 -20.0539628 57.23799329 -10 53 C-3.41609074 48.83129363 0.60200498 43.30112207 2.58203125 35.79296875 C4.09945246 25.65319151 3.63257782 15.08223531 0.65625 5.28515625 C0 3 0 3 0 0 Z " fill="#433677" transform="translate(271,162)"/>
<path d="M0 0 C1.28197266 -0.01836914 1.28197266 -0.01836914 2.58984375 -0.03710938 C3.82927734 -0.04000977 3.82927734 -0.04000977 5.09375 -0.04296875 C5.84333984 -0.04707764 6.59292969 -0.05118652 7.36523438 -0.05541992 C9.77798857 0.21913296 11.40459178 0.98999675 13.5 2.1875 C12.3140625 2.11789063 11.128125 2.04828125 9.90625 1.9765625 C-3.75008274 1.42043509 -15.825378 3.00774921 -26.6875 12.0625 C-31.22855534 16.62095402 -35.22659542 21.1253687 -35.8125 27.6875 C-35.709375 28.5125 -35.60625 29.3375 -35.5 30.1875 C-34.84 30.5175 -34.18 30.8475 -33.5 31.1875 C-33.82484375 32.03441406 -34.1496875 32.88132813 -34.484375 33.75390625 C-36.79336568 41.56007089 -36.39973804 50.57568764 -33.5 58.1875 C-38.6891788 53.4476635 -40.01470021 46.66496222 -40.4921875 39.88671875 C-40.52493029 28.57408494 -36.96103464 18.83277945 -29.375 10.375 C-20.91100038 2.51692429 -11.11379766 0.00838145 0 0 Z " fill="#BA2567" transform="translate(86.5,135.8125)"/>
<path d="M0 0 C2.36328125 1.3125 2.36328125 1.3125 4.36328125 4.3125 C-6.86230568 14.00612448 -20.32737237 22.9184417 -34.63671875 27.3125 C-37.03125 26.9609375 -37.03125 26.9609375 -38.63671875 26.3125 C-37.38936308 25.6615741 -36.13870043 25.01698331 -34.88671875 24.375 C-34.190625 24.01535156 -33.49453125 23.65570313 -32.77734375 23.28515625 C-30.63671875 22.3125 -30.63671875 22.3125 -28.49609375 21.87109375 C-26.24069227 21.4088369 -26.24069227 21.4088369 -24.63671875 18.3125 C-22.98247865 17.92214301 -21.31299639 17.59353765 -19.63671875 17.3125 C-12.32824145 14.0995279 -5.97501181 9.08695253 0.36328125 4.3125 C-0.13171875 3.3225 -0.13171875 3.3225 -0.63671875 2.3125 C-3.60865725 3.43701727 -5.97112562 4.53543791 -8.63671875 6.3125 C-9.99625472 6.83392846 -11.37377256 7.3097375 -12.76171875 7.75 C-15.16833065 8.51839959 -17.56595511 9.28723582 -19.9453125 10.13671875 C-28.94728203 13.33499215 -40.23400577 15.51021375 -49.32421875 11.8125 C-50.08734375 11.3175 -50.85046875 10.8225 -51.63671875 10.3125 C-51.30671875 9.6525 -50.97671875 8.9925 -50.63671875 8.3125 C-49.94964844 8.6321875 -49.26257813 8.951875 -48.5546875 9.28125 C-36.56239861 13.51948864 -23.77968652 9.01688041 -12.63671875 4.3125 C-9.91288236 2.96059591 -7.2724696 1.58683932 -4.6796875 0 C-2.63671875 -0.6875 -2.63671875 -0.6875 0 0 Z " fill="#32508B" transform="translate(122.63671875,176.6875)"/>
<path d="M0 0 C0 0.33 0 0.66 0 1 C-1.258125 1.14695312 -2.51625 1.29390625 -3.8125 1.4453125 C-30.7154688 4.8488435 -53.35331224 17.45923912 -75.28320312 33.00732422 C-76.23517578 33.67135254 -77.18714844 34.33538086 -78.16796875 35.01953125 C-79.00610107 35.61870361 -79.8442334 36.21787598 -80.70776367 36.83520508 C-83 38 -83 38 -85.16137695 37.7722168 C-87.47107313 36.80215054 -89.16251287 35.70623805 -91 34 C-91 33.01 -91 32.02 -91 31 C-90.34 31 -89.68 31 -89 31 C-89 31.99 -89 32.98 -89 34 C-85.73840759 35.0250719 -84.44560389 35.2176205 -81.3125 33.6875 C-78.9565815 32.05949942 -78.9565815 32.05949942 -77 30 C-74.63009619 28.5226011 -72.21635368 27.13172616 -69.80078125 25.73046875 C-67.6532283 24.40359852 -65.67232098 23.04256519 -63.6484375 21.546875 C-60.05413785 18.94885061 -56.30224175 16.98009958 -52.3125 15.0625 C-50.90478761 14.37532829 -49.49723704 13.68782501 -48.08984375 13 C-47.40003418 12.66484375 -46.71022461 12.3296875 -45.99951172 11.984375 C-42.17995035 10.10397556 -38.41652408 8.11012083 -34.6484375 6.12890625 C-32 5 -32 5 -28.7265625 4.46484375 C-27.82679688 4.31144531 -26.92703125 4.15804687 -26 4 C-25.67 3.34 -25.34 2.68 -25 2 C-17.0872429 -0.84859256 -8.26071188 -0.19825709 0 0 Z " fill="#CD5546" transform="translate(236,122)"/>
<path d="M0 0 C0.66 0 1.32 0 2 0 C-0.84969488 15.49834057 -6.81728873 28.16035163 -19.5625 37.9375 C-29.77323492 44.62647681 -42.63084884 45.52716652 -54.37890625 43.2109375 C-61.23750742 41.70203043 -67.5977812 39.91693781 -74 37 C-73.67 36.34 -73.34 35.68 -73 35 C-72.01 35 -71.02 35 -70 35 C-70 35.66 -70 36.32 -70 37 C-62.39042097 38.83679494 -54.75297286 39.94919844 -47 41 C-45.824375 41.20753906 -44.64875 41.41507812 -43.4375 41.62890625 C-34.767054 42.56492031 -26.04733839 38.87777562 -19 34 C-17.63205253 32.70220368 -16.28110407 31.3835924 -15 30 C-14.34 30 -13.68 30 -13 30 C-13 29.01 -13 28.02 -13 27 C-12.443125 26.46375 -11.88625 25.9275 -11.3125 25.375 C-6.09475429 20.01623414 -3.69173455 14.41729802 -3.23828125 7.01953125 C-2.89884302 4.1426531 -1.79998299 2.23197891 0 0 Z " fill="#2E80B1" transform="translate(310,215)"/>
<path d="M0 0 C0.66 0.33 1.32 0.66 2 1 C1.505 1.70125 1.01 2.4025 0.5 3.125 C-1.21625868 6.4144958 -1.07768924 8.34860586 -1 12 C-1.33 12.639375 -1.66 13.27875 -2 13.9375 C-3.45419784 16.93678305 -3.05985229 19.70812378 -3 23 C-3.33 23.99 -3.66 24.98 -4 26 C-3.02792965 27.67580052 -3.02792965 27.67580052 -1.5625 29.1875 C-0.716875 30.115625 0.12875 31.04375 1 32 C-2.91584938 30.24461924 -5.22529232 28.59245467 -7.125 24.6875 C-8.06404082 21.80330321 -8.58128118 19.00081818 -9 16 C-10.98 16.99 -10.98 16.99 -13 18 C-12.34458591 12.36343882 -11.20316886 8.87054123 -6.80078125 5.1328125 C-4.56073961 3.38157116 -2.29919755 1.67258187 0 0 Z " fill="#2EABD7" transform="translate(64,157)"/>
<path d="M0 0 C16.36713509 0.26749148 30.56502164 7.8080609 42.6875 18.375 C38.94820196 18.375 37.91017273 17.32219289 34.9375 15.125 C27.51289624 9.38266258 27.51289624 9.38266258 18.6875 7.375 C18.3575 8.035 18.0275 8.695 17.6875 9.375 C17.0275 9.375 16.3675 9.375 15.6875 9.375 C15.3575 12.345 15.0275 15.315 14.6875 18.375 C11.7175 17.715 8.7475 17.055 5.6875 16.375 C7.0075 15.715 8.3275 15.055 9.6875 14.375 C11.64972635 12.44159497 11.64972635 12.44159497 13.4375 10.25 C14.05109375 9.52554688 14.6646875 8.80109375 15.296875 8.0546875 C15.75578125 7.50039062 16.2146875 6.94609375 16.6875 6.375 C13.52059787 4.26373191 12.26422971 4.04016888 8.58203125 3.7421875 C7.59912109 3.65839844 6.61621094 3.57460937 5.60351562 3.48828125 C4.57935547 3.40964844 3.55519531 3.33101563 2.5 3.25 C1.46423828 3.16363281 0.42847656 3.07726562 -0.63867188 2.98828125 C-3.19608608 2.77614551 -5.75388541 2.57203581 -8.3125 2.375 C-5.54953927 -0.38796073 -3.8647191 0.04298909 0 0 Z " fill="#E81E7A" transform="translate(239.3125,100.625)"/>
<path d="M0 0 C2.71940705 2.71940705 3.4094778 5.84436916 4.5 9.4375 C4.72139648 10.16469238 4.94279297 10.89188477 5.17089844 11.64111328 C9.54818645 26.33722362 11.99431762 43.76803644 9 59 C8.34 59.99 7.68 60.98 7 62 C7.01571045 60.66207397 7.01571045 60.66207397 7.03173828 59.29711914 C7.0660796 55.94797109 7.09102394 52.59901359 7.10986328 49.24975586 C7.11984313 47.80766829 7.13343184 46.36560054 7.15087891 44.92358398 C7.24384199 37.0353929 7.17375461 29.65948967 5 22 C3.04783565 23.95216435 2.15173355 25.53199953 1 28 C1.00523682 27.43603516 1.01047363 26.87207031 1.01586914 26.29101562 C1.03687267 23.69402211 1.04973362 21.09704656 1.0625 18.5 C1.07087891 17.613125 1.07925781 16.72625 1.08789062 15.8125 C1.10763596 10.44176914 0.78835893 5.31366337 0 0 Z " fill="#4CAEDC" transform="translate(304,153)"/>
<path d="M0 0 C2 1 2 1 3.4375 2.5 C5.0377353 4.25083992 5.0377353 4.25083992 8 5 C9.68711423 6.6459651 11.3545622 8.31237149 13 10 C13.66 10.33 14.32 10.66 15 11 C15 11.66 15 12.32 15 13 C15.66 13 16.32 13 17 13 C17 13.66 17 14.32 17 15 C17.57234375 15.268125 18.1446875 15.53625 18.734375 15.8125 C21.07884634 17.04132636 23.12404938 18.42522176 25.25 20 C25.95640625 20.515625 26.6628125 21.03125 27.390625 21.5625 C27.92171875 22.036875 28.4528125 22.51125 29 23 C29 23.66 29 24.32 29 25 C30.32 25.33 31.64 25.66 33 26 C33 26.66 33 27.32 33 28 C33.763125 28.268125 34.52625 28.53625 35.3125 28.8125 C37.97908997 29.99076069 39.02370777 30.95299121 41 33 C42.06925957 33.89342063 43.15330227 34.76938862 44.25 35.62890625 C44.8584375 36.10650391 45.466875 36.58410156 46.09375 37.07617188 C47.03734375 37.8119043 47.03734375 37.8119043 48 38.5625 C48.6290625 39.05685547 49.258125 39.55121094 49.90625 40.06054688 C52.56181567 42.13942721 55.19073701 44.12715801 58 46 C57.67 46.99 57.34 47.98 57 49 C56.00742188 48.18917969 55.01484375 47.37835938 53.9921875 46.54296875 C47.33283327 41.11294485 40.66069166 35.70910139 33.875 30.4375 C28.53563898 26.28205794 23.38811395 21.94223353 18.28027344 17.5065918 C12.03308337 12.10880038 5.53368868 7.04424597 -1 2 C-0.67 1.34 -0.34 0.68 0 0 Z " fill="#593678" transform="translate(136,177)"/>
<path d="M0 0 C1.35992065 0.00737183 1.35992065 0.00737183 2.74731445 0.01489258 C13.11751053 0.19682584 20.67423175 2.88249943 29.4375 8.3125 C30.54609375 8.99828125 31.6546875 9.6840625 32.796875 10.390625 C47.54373472 19.63882469 47.54373472 19.63882469 52.4375 24.3125 C52.4375 24.9725 52.4375 25.6325 52.4375 26.3125 C48.8319169 24.67359859 45.77792049 22.48881092 42.5625 20.1875 C34.15548808 14.27324381 25.34489201 8.28621193 15.4375 5.3125 C15.4375 4.6525 15.4375 3.9925 15.4375 3.3125 C9.42889451 2.25411873 3.59122439 2.19587429 -2.5 2.25 C-3.9550293 2.25676758 -3.9550293 2.25676758 -5.43945312 2.26367188 C-7.8138676 2.2753685 -10.18815021 2.29175914 -12.5625 2.3125 C-8.38064734 -0.47540178 -4.91837716 -0.03074821 0 0 Z " fill="#B82466" transform="translate(82.5625,151.6875)"/>
<path d="M0 0 C4.49083364 6.73625046 5.39088494 17.12990938 4 25 C2.19962271 27.50692071 0.72086586 28.41282825 -2 30 C-1.67 28.35 -1.34 26.7 -1 25 C-1.99 25.33 -2.98 25.66 -4 26 C-4.66 23.36 -5.32 20.72 -6 18 C-4.824375 17.443125 -3.64875 16.88625 -2.4375 16.3125 C-0.3889124 15.05679754 -0.3889124 15.05679754 1 13 C1.33343434 8.55779406 0.7625419 4.37660602 0 0 Z " fill="#523F95" transform="translate(302,148)"/>
<path d="M0 0 C1.49076829 0.87639106 2.96733869 1.77696328 4.4375 2.6875 C5.26121094 3.18636719 6.08492187 3.68523437 6.93359375 4.19921875 C9 6 9 6 9.90625 8.5 C10.04555312 12.21474981 8.20058647 14.13256914 6 17 C3.0280615 15.87548273 0.66559313 14.77706209 -2 13 C-2 12.34 -2 11.68 -2 11 C-2.99 10.67 -3.98 10.34 -5 10 C-4.38125 9.71125 -3.7625 9.4225 -3.125 9.125 C-0.86674235 8.06279958 -0.86674235 8.06279958 1 6 C0.67801034 2.90073181 0.67801034 2.90073181 0 0 Z " fill="#C21D86" transform="translate(165,178)"/>
<path d="M0 0 C1.24652344 0.28617188 2.49304688 0.57234375 3.77734375 0.8671875 C9.345864 2.10463645 14.94782882 3.1217166 20.5625 4.125 C21.57119141 4.30675781 22.57988281 4.48851562 23.61914062 4.67578125 C26.07913957 5.11881423 28.53942346 5.56018835 31 6 C30.67 6.66 30.34 7.32 30 8 C32.41674224 8.02705308 34.8331794 8.04686438 37.25 8.0625 C38.27287109 8.07506836 38.27287109 8.07506836 39.31640625 8.08789062 C42.10950816 8.10144937 44.64924032 8.0934972 47.359375 7.37109375 C47.90078125 7.24863281 48.4421875 7.12617188 49 7 C49.66 7.66 50.32 8.32 51 9 C33.52628308 13.23918576 15.85575895 8.32728254 0 1 C0 0.67 0 0.34 0 0 Z " fill="#40469A" transform="translate(221,214)"/>
<path d="M0 0 C10.12774725 8.32417582 10.12774725 8.32417582 11 16 C9.59546357 16.89434157 8.17578131 17.76493192 6.75 18.625 C5.56664062 19.35589844 5.56664062 19.35589844 4.359375 20.1015625 C2 21 2 21 -0.21875 20.28125 C-2.32948531 18.7630018 -3.0441499 17.38962525 -4 15 C-3.34 15 -2.68 15 -2 15 C-2 15.66 -2 16.32 -2 17 C0.31 15.02 2.62 13.04 5 11 C4.51428134 6.62853208 3.16325079 4.9591701 0 2 C0 1.34 0 0.68 0 0 Z " fill="#CA1784" transform="translate(282,120)"/>
<path d="M0 0 C1.32 0 2.64 0 4 0 C4 0.66 4 1.32 4 2 C11.60957903 3.83679494 19.24702714 4.94919844 27 6 C28.75570313 6.32097656 28.75570313 6.32097656 30.546875 6.6484375 C34.21114409 7.02149657 36.61291608 6.59411734 40.125 5.5625 C43.89913553 4.46947114 47.0633533 3.81975061 51 4 C41.82160751 10.11892833 30.19380491 10.29543706 19.62109375 8.2109375 C12.76249258 6.70203043 6.4022188 4.91693781 0 2 C0 1.34 0 0.68 0 0 Z " fill="#2E71A4" transform="translate(236,250)"/>
<path d="M0 0 C2.75236947 1.3156387 5.25465557 2.7738496 7.765625 4.50390625 C8.48314941 4.99310547 9.20067383 5.48230469 9.93994141 5.98632812 C10.70226074 6.50646484 11.46458008 7.02660156 12.25 7.5625 C23.08555781 14.87291907 34.2898657 21.20955832 46 27 C43.69200898 27.79936555 42.41212643 28.13351158 40.05566406 27.37011719 C39.38245117 27.01594727 38.70923828 26.66177734 38.015625 26.296875 C37.25282227 25.89879639 36.49001953 25.50071777 35.70410156 25.09057617 C34.89424805 24.64818604 34.08439453 24.2057959 33.25 23.75 C32.41178711 23.30052002 31.57357422 22.85104004 30.70996094 22.38793945 C23.04142207 18.18936372 15.83808323 13.41262833 8.77148438 8.27490234 C7.52470802 7.377622 6.26414738 6.49934078 4.99414062 5.63525391 C3.29567417 4.47128479 1.64317197 3.2408055 0 2 C0 1.34 0 0.68 0 0 Z " fill="#6B5890" transform="translate(175,186)"/>
<path d="M0 0 C4.62222515 2.67829869 8.94576156 5.73496721 13.27148438 8.859375 C16.17574511 10.91103989 18.54223255 12.24361337 22 13 C22.804375 13.825 23.60875 14.65 24.4375 15.5 C27.18754416 18.18296991 28.32548903 18.50344446 32 19 C34 21 34 21 35 23 C35.99 23.33 36.98 23.66 38 24 C41 25 41 25 42 27 C35.49361533 25.12916372 30.02330839 22.54951833 24.3125 18.9375 C23.15826538 18.21820313 23.15826538 18.21820313 21.98071289 17.484375 C16.88463217 14.27543914 11.86826412 10.95755986 6.9375 7.5 C6.34815674 7.09128662 5.75881348 6.68257324 5.15161133 6.26147461 C2.35766391 4.25283933 1.11611036 3.34833108 0 0 Z " fill="#3C5791" transform="translate(194,224)"/>
<path d="M0 0 C-1.12440511 3.37321532 -1.55599953 3.63270006 -4.45703125 5.375 C-5.15763672 5.80296875 -5.85824219 6.2309375 -6.58007812 6.671875 C-7.31677734 7.11015625 -8.05347656 7.5484375 -8.8125 8 C-10.25747458 8.87340686 -11.70151371 9.74836355 -13.14453125 10.625 C-13.82080566 11.03347168 -14.49708008 11.44194336 -15.19384766 11.86279297 C-17.14050267 13.05083046 -17.14050267 13.05083046 -19.38671875 14.8203125 C-21 16 -21 16 -23 15.875 C-25.35575059 14.84435912 -27.11265356 13.75253598 -29 12 C-29 11.01 -29 10.02 -29 9 C-28.34 9 -27.68 9 -27 9 C-27 9.99 -27 10.98 -27 12 C-23.73840759 13.0250719 -22.44560389 13.2176205 -19.3125 11.6875 C-16.9565815 10.05949942 -16.9565815 10.05949942 -15 8 C-13.37147847 6.97204816 -11.72305322 5.97536166 -10.0625 5 C-1.575 0 -1.575 0 0 0 Z " fill="#D57543" transform="translate(174,144)"/>
<path d="M0 0 C-3.22814488 2.65337762 -6.55820809 4.26042477 -10.375 5.9375 C-14.90300226 7.98191574 -18.9200736 10.15353972 -23 13 C-28.30880376 16.01201579 -28.30880376 16.01201579 -31 17 C-31.66 16.67 -32.32 16.34 -33 16 C-7.30418246 -0.50010619 -7.30418246 -0.50010619 0 0 Z " fill="#E89E46" transform="translate(214,108)"/>
<path d="M0 0 C0.33 0 0.66 0 1 0 C3.91397526 12.84412396 5.56127119 27.97092483 3 41 C2.34 41.99 1.68 42.98 1 44 C1.00523682 43.08710205 1.01047363 42.1742041 1.01586914 41.23364258 C1.03295631 37.83243167 1.0454722 34.43126669 1.05493164 31.0300293 C1.05994669 29.56062091 1.06676033 28.09121748 1.07543945 26.62182617 C1.08762928 24.50438205 1.09325669 22.38700417 1.09765625 20.26953125 C1.10289307 18.99698486 1.10812988 17.72443848 1.11352539 16.41333008 C1.01511551 13.45447302 0.65729996 10.87311973 0 8 C-0.11678799 5.32321927 -0.0454506 2.68158543 0 0 Z " fill="#68B8D9" transform="translate(310,171)"/>
<path d="M0 0 C0.83208984 -0.00322266 1.66417969 -0.00644531 2.52148438 -0.00976562 C6.70455141 0.02713392 9.48288782 0.21813562 13.1875 2.3125 C11.95515625 2.25449219 10.7228125 2.19648438 9.453125 2.13671875 C0.2220118 1.83888067 -7.08902163 1.86938702 -15.46484375 6.31640625 C-18.11867994 7.44240996 -19.17036495 7.3362507 -21.8125 6.3125 C-16.25608049 0.08508374 -7.84154945 -0.15546292 0 0 Z " fill="#C81F79" transform="translate(86.8125,135.6875)"/>
<path d="M0 0 C2.20703125 1.359375 2.20703125 1.359375 4.20703125 4.359375 C-0.1875 8.36328125 -0.1875 8.36328125 -1.79296875 9.359375 C-2.78296875 9.029375 -3.77296875 8.699375 -4.79296875 8.359375 C-3.14296875 6.709375 -1.49296875 5.059375 0.20703125 3.359375 C-0.78296875 3.029375 -1.77296875 2.699375 -2.79296875 2.359375 C-4.09234375 3.2875 -4.09234375 3.2875 -5.41796875 4.234375 C-9.59230817 6.86266278 -12.95694966 7.14444082 -17.79296875 7.359375 C-15.27245012 4.83885637 -12.68825909 3.66422694 -9.48046875 2.109375 C-8.34996094 1.54734375 -7.21945313 0.9853125 -6.0546875 0.40625 C-2.79296875 -0.640625 -2.79296875 -0.640625 0 0 Z " fill="#30377A" transform="translate(122.79296875,176.640625)"/>
<path d="M0 0 C8.154786 -0.88638978 14.73957903 3.01266254 21 8 C24.01105548 10.79598009 26.4373552 13.1644173 28 17 C24.68059913 15.54869245 22.47224797 13.69370053 19.875 11.1875 C14.04302816 5.89445625 7.81164368 2.31579105 0 1 C0 0.67 0 0.34 0 0 Z " fill="#B52561" transform="translate(232,123)"/>
<path d="M0 0 C6.59532899 0.07486958 12.34211084 1.17979515 18.5625 3.3125 C18.5625 3.9725 18.5625 4.6325 18.5625 5.3125 C17.48899292 5.0815564 17.48899292 5.0815564 16.39379883 4.84594727 C13.67341542 4.33339766 11.01818589 4.01913911 8.26171875 3.77734375 C7.28525391 3.69033203 6.30878906 3.60332031 5.30273438 3.51367188 C4.29533203 3.42666016 3.28792969 3.33964844 2.25 3.25 C1.22326172 3.15912109 0.19652344 3.06824219 -0.86132812 2.97460938 C-3.38651351 2.75145346 -5.9118938 2.53083289 -8.4375 2.3125 C-5.65062434 -0.47437566 -3.89320942 0.01279258 0 0 Z " fill="#CE6060" transform="translate(239.4375,100.6875)"/>
<path d="M0 0 C0.90226318 0.00346436 1.80452637 0.00692871 2.73413086 0.01049805 C17.10169586 0.24535123 17.10169586 0.24535123 22.18359375 4.91796875 C22.59738281 5.37816406 23.01117188 5.83835938 23.4375 6.3125 C21.4375 7.3125 21.4375 7.3125 18.3125 6.375 C17.36375 6.024375 16.415 5.67375 15.4375 5.3125 C15.4375 4.6525 15.4375 3.9925 15.4375 3.3125 C9.42889451 2.25411873 3.59122439 2.19587429 -2.5 2.25 C-3.9550293 2.25676758 -3.9550293 2.25676758 -5.43945312 2.26367188 C-7.8138676 2.2753685 -10.18815021 2.29175914 -12.5625 2.3125 C-8.38019748 -0.47570168 -4.91874248 -0.02987542 0 0 Z " fill="#A0327A" transform="translate(82.5625,151.6875)"/>
<path d="M0 0 C0.66 0.33 1.32 0.66 2 1 C0.35 2.65 -1.3 4.3 -3 6 C-2.67 6.99 -2.34 7.98 -2 9 C-3.6188996 10.03048037 -5.24532489 11.04914678 -6.875 12.0625 C-7.77992188 12.63097656 -8.68484375 13.19945312 -9.6171875 13.78515625 C-10.40351563 14.18605469 -11.18984375 14.58695313 -12 15 C-12.66 14.67 -13.32 14.34 -14 14 C-14 13.34 -14 12.68 -14 12 C-12.68 12 -11.36 12 -10 12 C-9.731875 11.41605469 -9.46375 10.83210937 -9.1875 10.23046875 C-7.98776545 7.97701996 -6.66982858 6.23697744 -5 4.3125 C-4.484375 3.71050781 -3.96875 3.10851562 -3.4375 2.48828125 C-2 1 -2 1 0 0 Z " fill="#F9B644" transform="translate(183,124)"/>
<path d="M0 0 C-3.89558843 1.62558754 -7.79151344 3.25036689 -11.6875 4.875 C-12.79029297 5.33519531 -13.89308594 5.79539062 -15.02929688 6.26953125 C-16.6293457 6.93662109 -16.6293457 6.93662109 -18.26171875 7.6171875 C-19.73064575 8.22989502 -19.73064575 8.22989502 -21.22924805 8.85498047 C-23.81222718 9.92240245 -26.40279305 10.96775015 -29 12 C-29 11.34 -29 10.68 -29 10 C-23.52999148 6.67042959 -17.97400425 4.28115342 -12 2 C-11.24847656 1.68546875 -10.49695313 1.3709375 -9.72265625 1.046875 C-6.00686197 -0.47542433 -3.83050232 -1.24027278 0 0 Z " fill="#F27B31" transform="translate(210,120)"/>
<path d="M0 0 C1.98 1.32 3.96 2.64 6 4 C5.43454163 7.95820859 4.19097652 10.6659053 2 14 C-2.875 12.25 -2.875 12.25 -4 10 C-1.525 10.495 -1.525 10.495 1 11 C1.020625 9.741875 1.04125 8.48375 1.0625 7.1875 C1.07410156 6.47980469 1.08570313 5.77210938 1.09765625 5.04296875 C1.08263217 2.79694539 1.08263217 2.79694539 0 0 Z " fill="#962787" transform="translate(169,181)"/>
<path d="M0 0 C2 1 2 1 3.4375 2.5 C5.0377353 4.25083992 5.0377353 4.25083992 8 5 C9.68711423 6.6459651 11.3545622 8.31237149 13 10 C13.66 10.33 14.32 10.66 15 11 C15 11.66 15 12.32 15 13 C15.66 13 16.32 13 17 13 C17 13.66 17 14.32 17 15 C17.66 15.33 18.32 15.66 19 16 C15.64203331 15.39569666 13.72042973 14.22745373 11.109375 12.05859375 C10.40039062 11.47529297 9.69140625 10.89199219 8.9609375 10.29101562 C8.23132813 9.67935547 7.50171875 9.06769531 6.75 8.4375 C6.00492188 7.82197266 5.25984375 7.20644531 4.4921875 6.57226562 C2.65634532 5.05416536 0.82594645 3.52997563 -1 2 C-0.67 1.34 -0.34 0.68 0 0 Z " fill="#9F286B" transform="translate(136,177)"/>
<path d="M0 0 C0.28875 0.639375 0.5775 1.27875 0.875 1.9375 C1.82823451 4.15206079 1.82823451 4.15206079 4 5 C3.79503906 5.66386719 3.59007812 6.32773438 3.37890625 7.01171875 C3.10949219 7.89472656 2.84007812 8.77773437 2.5625 9.6875 C2.29566406 10.55761719 2.02882812 11.42773438 1.75390625 12.32421875 C1.03655471 14.87025921 0.482459 17.4003423 0 20 C-0.33 20 -0.66 20 -1 20 C-1.02722517 17.79173622 -1.04649729 15.58337362 -1.0625 13.375 C-1.07410156 12.14523438 -1.08570313 10.91546875 -1.09765625 9.6484375 C-1.00863924 6.32276209 -0.63686087 3.25952412 0 0 Z " fill="#E31A69" transform="translate(49,162)"/>
<path d="M0 0 C9.60382303 2.43575222 17.36309222 7.69940144 24 15 C19.94106656 13.60836568 17.33092044 11.66473635 14 9 C9.45243676 6.11148263 4.84962877 3.35201395 0 1 C0 0.67 0 0.34 0 0 Z " fill="#B82370" transform="translate(258,105)"/>
<path d="M0 0 C1.19625 0.268125 2.3925 0.53625 3.625 0.8125 C10.07498936 2.24697763 16.53792955 3.62117985 23 5 C23 5.33 23 5.66 23 6 C14.20090134 6.77944772 7.88462021 4.85286851 0 1 C0 0.67 0 0.34 0 0 Z " fill="#59397E" transform="translate(221,214)"/>
<path d="M0 0 C5.19209404 -0.21192221 9.126739 0.4087311 14 2 C11.02759856 2.828711 8.19866403 3.2029057 5.125 3.4375 C1.1646323 3.80072899 -2.27702085 4.53040297 -6 6 C-6 5.34 -6 4.68 -6 4 C-4.02 3.34 -2.04 2.68 0 2 C0 1.34 0 0.68 0 0 Z " fill="#356EA5" transform="translate(84,153)"/>
<path d="M0 0 C7.36842105 3.42105263 7.36842105 3.42105263 9.125 7.8125 C9.558125 9.3903125 9.558125 9.3903125 10 11 C10.37125 12.11375 10.7425 13.2275 11.125 14.375 C11.41375 15.24125 11.7025 16.1075 12 17 C11.34 17 10.68 17 10 17 C9.61328125 16.27554688 9.2265625 15.55109375 8.828125 14.8046875 C6.0828303 9.70822457 3.32931133 4.73786613 0 0 Z " fill="#7A2E79" transform="translate(258,140)"/>
<path d="M0 0 C1.32 0.33 2.64 0.66 4 1 C3.01 1.495 3.01 1.495 2 2 C1.67 2.99 1.34 3.98 1 5 C-1.14453125 6.203125 -1.14453125 6.203125 -3.8125 7.25 C-4.68519531 7.60578125 -5.55789062 7.9615625 -6.45703125 8.328125 C-9.13641236 9.03604136 -10.43212123 8.9337741 -13 8 C-11.75264433 7.3490741 -10.50198168 6.70448331 -9.25 6.0625 C-8.55390625 5.70285156 -7.8578125 5.34320313 -7.140625 4.97265625 C-5 4 -5 4 -2.796875 3.55859375 C-2.20390625 3.37425781 -1.6109375 3.18992188 -1 3 C-0.67 2.01 -0.34 1.02 0 0 Z " fill="#23488B" transform="translate(97,195)"/>
<path d="M0 0 C0.33 0 0.66 0 1 0 C1.92017937 10.68430493 1.92017937 10.68430493 -0.3359375 13.91015625 C-2 15.25 -2 15.25 -5 17 C-4.5838117 14.0866819 -4.08471884 12.13413816 -2.5 9.625 C-0.67162324 6.42534066 -0.3567012 3.6383522 0 0 Z " fill="#33479E" transform="translate(305,161)"/>
<path d="M0 0 C0.66 0.33 1.32 0.66 2 1 C-2.22486037 4.80237433 -6.5673033 8.11568628 -12 10 C-12.66 9.67 -13.32 9.34 -14 9 C-11.71439353 7.4693001 -9.42237333 5.95034956 -7.125 4.4375 C-6.14853516 3.78104492 -6.14853516 3.78104492 -5.15234375 3.11132812 C-3.47374503 2.01245164 -1.73976613 0.9992182 0 0 Z " fill="#E5B35B" transform="translate(195,115)"/>
<path d="M0 0 C3.77693016 2.18882424 7.29573979 4.6028931 10.8125 7.1875 C11.78832031 7.90292969 12.76414063 8.61835938 13.76953125 9.35546875 C14.50558594 9.89816406 15.24164063 10.44085938 16 11 C15.67 11.66 15.34 12.32 15 13 C12.68072602 11.40493802 10.36981059 9.79970244 8.0625 8.1875 C7.40314453 7.73568359 6.74378906 7.28386719 6.06445312 6.81835938 C5.12182617 6.15610352 5.12182617 6.15610352 4.16015625 5.48046875 C3.28822632 4.87561646 3.28822632 4.87561646 2.39868164 4.25854492 C1 3 1 3 0 0 Z " fill="#4C4584" transform="translate(194,224)"/>
<path d="M0 0 C0.66 0.33 1.32 0.66 2 1 C1.67 3.64 1.34 6.28 1 9 C-1.31 8.67 -3.62 8.34 -6 8 C-5.38125 7.79375 -4.7625 7.5875 -4.125 7.375 C-1.15346355 5.45224112 -0.86975341 3.33405473 0 0 Z " fill="#B2228C" transform="translate(169,183)"/>
<path d="M0 0 C4.82360189 -0.19294408 8.49646738 0.24252386 13 2 C13 2.66 13 3.32 13 4 C12.01 3.7834375 12.01 3.7834375 11 3.5625 C7.34400449 2.87700084 3.69377805 2.43824485 0 2 C0 1.34 0 0.68 0 0 Z " fill="#D44371" transform="translate(245,102)"/>
<path d="M0 0 C-0.99 0.495 -0.99 0.495 -2 1 C-2 1.66 -2 2.32 -2 3 C-7.94 3.495 -7.94 3.495 -14 4 C-12.68 3.34 -11.36 2.68 -10 2 C-6.3558226 -0.4294516 -4.28758728 -0.16179575 0 0 Z " fill="#2A73A7" transform="translate(86,202)"/>
<path d="M0 0 C3.10742423 1.46818668 5.90471739 3.20025 8.75 5.125 C9.94882813 5.93324219 9.94882813 5.93324219 11.171875 6.7578125 C11.77515625 7.16773438 12.3784375 7.57765625 13 8 C12.01 8.33 11.02 8.66 10 9 C7.51953125 7.63671875 7.51953125 7.63671875 4.8125 5.6875 C3.91144531 5.05199219 3.01039063 4.41648438 2.08203125 3.76171875 C1.39496094 3.18035156 0.70789063 2.59898437 0 2 C0 1.34 0 0.68 0 0 Z " fill="#6D3A79" transform="translate(175,186)"/>
<path d="M0 0 C1 2 1 2 0.875 4.5 C0 7 0 7 -2.5625 8.3125 C-3.7690625 8.6528125 -3.7690625 8.6528125 -5 9 C-4.50769231 3.46153846 -4.50769231 3.46153846 -1.9375 1.125 C-1.298125 0.75375 -0.65875 0.3825 0 0 Z " fill="#12ADD7" transform="translate(56,166)"/>
<path d="M0 0 C0.66 0 1.32 0 2 0 C1.34 3.3 0.68 6.6 0 10 C-0.66 10 -1.32 10 -2 10 C-3.04127245 6.6868604 -3.18574123 5.39801692 -1.6875 2.1875 C-1.130625 1.465625 -0.57375 0.74375 0 0 Z " fill="#2E8CBE" transform="translate(310,215)"/>
<path d="M0 0 C2.96404505 2.80804268 5.44499019 5.18315774 7 9 C2.7257442 7.4169423 0.73468206 4.49431596 -2 1 C-1.34 0.67 -0.68 0.34 0 0 Z " fill="#A82469" transform="translate(253,131)"/>
<path d="M0 0 C0.598125 0.226875 1.19625 0.45375 1.8125 0.6875 C0.31510417 1.92447917 -1.18229167 3.16145833 -2.6796875 4.3984375 C-3.89801161 5.44000992 -5.05410097 6.55410097 -6.1875 7.6875 C-5.82037028 4.97074005 -5.46005401 3.07686287 -3.875 0.8125 C-2.1875 -0.3125 -2.1875 -0.3125 0 0 Z " fill="#EDAA4B" transform="translate(153.1875,148.3125)"/>
<path d="M0 0 C0 0.66 0 1.32 0 2 C-1.28913487 2.67154933 -2.58140204 3.33708859 -3.875 4 C-4.59429687 4.37125 -5.31359375 4.7425 -6.0546875 5.125 C-8 6 -8 6 -10 6 C-10 5.34 -10 4.68 -10 4 C-3.375 0 -3.375 0 0 0 Z " fill="#F5973A" transform="translate(191,126)"/>
<path d="M0 0 C5.49152542 0.61016949 5.49152542 0.61016949 7.875 2.4375 C9 4 9 4 9 6 C5.06326356 4.68775452 2.77280706 3.08089673 0 0 Z " fill="#434D8E" transform="translate(210,236)"/>
<path d="M0 0 C2.95409701 1.37154504 5.44008376 2.98863724 8 5 C7.67 5.99 7.34 6.98 7 8 C4.35247996 5.42215154 2.05567935 3.08351902 0 0 Z " fill="#8F2A73" transform="translate(258,140)"/>
<path d="M0 0 C-1.25125384 3.75376152 -2.5652404 4.24073289 -6 6 C-6.66 6 -7.32 6 -8 6 C-6.98565881 3.46414701 -6.34981128 2.21863205 -4 0.75 C-2 0 -2 0 0 0 Z " fill="#D96D3B" transform="translate(182,139)"/>
<path d="M0 0 C-2.31 1.65 -4.62 3.3 -7 5 C-7.33 3.68 -7.66 2.36 -8 1 C-3.375 -1.125 -3.375 -1.125 0 0 Z " fill="#F07C41" transform="translate(226,105)"/>
<path d="M0 0 C-0.66 0 -1.32 0 -2 0 C-2 0.66 -2 1.32 -2 2 C-4.35438733 3.42944945 -5.48032433 4.08661261 -8.25 3.625 C-8.8275 3.41875 -9.405 3.2125 -10 3 C-3.375 -1.125 -3.375 -1.125 0 0 Z " fill="#D95D3A" transform="translate(204,129)"/>
<path d="M0 0 C0.66 0.33 1.32 0.66 2 1 C1.01 2.485 1.01 2.485 0 4 C-0.66 4 -1.32 4 -2 4 C-2.33 4.99 -2.66 5.98 -3 7 C-3.99 7.33 -4.98 7.66 -6 8 C-4.55746343 4.63408134 -2.66735273 2.48952921 0 0 Z " fill="#EB2582" transform="translate(257,106)"/>
</svg>
