<?xml version="1.0" encoding="UTF-8"?>
<svg version="1.1" xmlns="http://www.w3.org/2000/svg" width="100" height="100">
<path d="M0 0 C5.44771446 -0.36318096 5.44771446 -0.36318096 7.72265625 1.1328125 C10.00288815 4.46599552 11.19506473 8.23650712 12.62109375 11.9921875 C15.40046045 18.05482874 19.08646649 20.99617492 24.875 24.0625 C37.70953757 31.03179191 37.70953757 31.03179191 38.75 34.5 C37.86584749 37.44717505 36.71375145 38.36383842 34.109375 39.9140625 C32.47119615 40.75742124 30.8099368 41.55601313 29.140625 42.3359375 C17.88978442 47.6255118 14.15452606 53.06646728 8.80859375 64.20703125 C6.78325809 67.33470942 5.53881589 68.0502665 2 69 C-2.29309988 65.25069277 -4.41516503 60.61733985 -6.82421875 55.57617188 C-10.88581963 47.50960599 -17.23057969 44.09148083 -25.22851562 40.68359375 C-28.16769392 39.32898853 -29.75981057 38.50769137 -31.16796875 35.53125 C-31 33 -31 33 -29.4921875 30.890625 C-26.52477316 28.63948309 -23.52948542 27.25822365 -20.125 25.75 C-8.77555839 20.33325408 -5.15576398 10.86066259 0 0 Z M3 3 C2.47212891 4.59328125 2.47212891 4.59328125 1.93359375 6.21875 C-4.18984114 24.05346499 -4.18984114 24.05346499 -13.55859375 28.8046875 C-16.98829578 30.35013834 -20.46818898 31.70679874 -24 33 C-24 33.99 -24 34.98 -24 36 C-22.71416016 36.32871094 -22.71416016 36.32871094 -21.40234375 36.6640625 C-19.68724609 37.13972656 -19.68724609 37.13972656 -17.9375 37.625 C-16.81214844 37.92664062 -15.68679687 38.22828125 -14.52734375 38.5390625 C-8.38963333 41.08114854 -4.43231492 44.35207656 -1.78515625 50.5234375 C-1.18976704 52.13295118 -0.6156626 53.7504897 -0.0625 55.375 C0.23978516 56.20644531 0.54207031 57.03789063 0.85351562 57.89453125 C1.58793738 59.92293418 2.29668572 61.96060235 3 64 C6.31699303 63.26956674 6.31699303 63.26956674 7.76171875 59.83203125 C8.40614521 58.49338784 9.04793282 57.15347184 9.6875 55.8125 C12.86624959 49.56100788 15.64820498 45.3379331 22 42 C23.04671875 41.44699219 24.0934375 40.89398438 25.171875 40.32421875 C28.09355592 38.83251546 31.03132115 37.39527906 34 36 C34 35.01 34 34.02 34 33 C33.48614746 32.74420166 32.97229492 32.48840332 32.44287109 32.22485352 C13.83324962 22.82370668 13.83324962 22.82370668 10 14 C9.52433594 13.00742187 9.04867187 12.01484375 8.55859375 10.9921875 C7.31756131 8.34780775 6.13656919 5.69055095 5 3 C4.34 3 3.68 3 3 3 Z " fill="#000000" transform="translate(38,7)"/>
<path d="M0 0 C2.25 0.0625 2.25 0.0625 5 1 C7.0898813 3.65742095 9 6.53550551 9 10 C10.11375 10.433125 10.11375 10.433125 11.25 10.875 C12.1575 11.24625 13.065 11.6175 14 12 C15.11375 12.433125 15.11375 12.433125 16.25 12.875 C18 14 18 14 18.9375 15.9375 C19 18 19 18 17.875 19.5625 C12.08695652 24 12.08695652 24 9 24 C8.731875 24.7425 8.46375 25.485 8.1875 26.25 C7.05770579 28.86636554 5.79106798 30.80187111 4 33 C1.875 33 1.875 33 -1 32 C-2.38671875 30.328125 -2.38671875 30.328125 -3.8125 28.25 C-6.85376203 23.83500864 -10.30521812 21.47846353 -15 19 C-14.9375 16.75 -14.9375 16.75 -14 14 C-11.34257905 11.9101187 -8.46449449 10 -5 10 C-4.731875 9.278125 -4.46375 8.55625 -4.1875 7.8125 C-3.01017502 5.02409874 -1.60854116 2.55904276 0 0 Z M1 4 C0.8040625 4.60328125 0.608125 5.2065625 0.40625 5.828125 C-1.34272508 10.50211014 -2.64505297 13.31718008 -7.25 15.5625 C-8.48837488 16.07095684 -9.73531853 16.56104502 -11 17 C-8.12496774 19.07588762 -8.12496774 19.07588762 -5.0625 20.125 C-0.95789668 22.63802244 0.24016165 25.64181209 2 30 C2.4125 29.443125 2.825 28.88625 3.25 28.3125 C3.8275 27.549375 4.405 26.78625 5 26 C5.598125 25.154375 6.19625 24.30875 6.8125 23.4375 C9.29033992 20.67647838 11.61884757 19.46004309 15 18 C15 17.34 15 16.68 15 16 C13.33298837 14.88771911 13.33298837 14.88771911 11.25 13.8125 C6.82259874 11.19059926 5.16947114 8.61012617 3 4 C2.34 4 1.68 4 1 4 Z " fill="#000000" transform="translate(74,59)"/>
</svg>
